<mxfile host="65bd71144e">
    <diagram name="Page-1" id="_NPz_gqAihKkbTZzHP7O">
        <mxGraphModel dx="2430" dy="1558" grid="1" gridSize="10" guides="1" tooltips="1" connect="1" arrows="1" fold="1" page="1" pageScale="1" pageWidth="850" pageHeight="1100" background="none" math="0" shadow="0">
            <root>
                <mxCell id="0"/>
                <mxCell id="1" parent="0"/>
                <mxCell id="156" value="" style="rounded=0;whiteSpace=wrap;html=1;fontSize=30;fillColor=none;strokeWidth=2;" vertex="1" parent="1">
                    <mxGeometry x="1590" y="159.25" width="770" height="835" as="geometry"/>
                </mxCell>
                <mxCell id="WcYlr9qntT-l19i8F4rk-41" value="" style="rounded=0;whiteSpace=wrap;html=1;strokeWidth=2;" parent="1" vertex="1">
                    <mxGeometry x="439.73" y="948.5" width="340" height="60" as="geometry"/>
                </mxCell>
                <mxCell id="10" value="" style="rounded=0;whiteSpace=wrap;html=1;strokeWidth=2;" parent="1" vertex="1">
                    <mxGeometry x="250" y="440" width="301.38" height="80" as="geometry"/>
                </mxCell>
                <mxCell id="160" style="edgeStyle=orthogonalEdgeStyle;html=1;exitX=1;exitY=0.5;exitDx=0;exitDy=0;dashed=1;dashPattern=1 1;strokeWidth=2;fontSize=30;rounded=0;" edge="1" parent="1" source="22">
                    <mxGeometry relative="1" as="geometry">
                        <mxPoint x="780" y="980" as="targetPoint"/>
                        <Array as="points">
                            <mxPoint x="1030" y="300"/>
                            <mxPoint x="1030" y="980"/>
                        </Array>
                    </mxGeometry>
                </mxCell>
                <mxCell id="22" value="" style="rounded=0;whiteSpace=wrap;html=1;strokeWidth=2;" parent="1" vertex="1">
                    <mxGeometry x="620" y="260" width="316.38" height="80" as="geometry"/>
                </mxCell>
                <mxCell id="44" value="&lt;font style=&quot;&quot;&gt;&lt;span style=&quot;font-size: 30px;&quot;&gt;N-Layer Subdiscriminator&amp;nbsp;&lt;/span&gt;&lt;br&gt;&lt;span style=&quot;font-size: 30px;&quot;&gt;&amp;nbsp;&lt;/span&gt;&lt;/font&gt;" style="text;html=1;strokeColor=none;fillColor=none;align=center;verticalAlign=middle;whiteSpace=wrap;rounded=0;strokeWidth=2;" parent="1" vertex="1">
                    <mxGeometry x="648.22" y="295" width="265.69" height="50" as="geometry"/>
                </mxCell>
                <mxCell id="47" value="&lt;i style=&quot;&quot;&gt;&lt;span style=&quot;font-size: 30px;&quot;&gt;S&lt;/span&gt;&lt;font style=&quot;font-size: 30px;&quot;&gt;&lt;sub&gt;1&lt;/sub&gt;&lt;/font&gt;&lt;/i&gt;" style="text;html=1;strokeColor=none;fillColor=none;align=center;verticalAlign=middle;whiteSpace=wrap;rounded=0;strokeWidth=2;" parent="1" vertex="1">
                    <mxGeometry x="275.03000000000003" y="450" width="254.57" height="60" as="geometry"/>
                </mxCell>
                <mxCell id="50" value="&lt;span style=&quot;font-size: 30px;&quot;&gt;Y&lt;/span&gt;&lt;font style=&quot;font-size: 30px;&quot;&gt;&lt;sub&gt;1&lt;/sub&gt;&lt;/font&gt;&lt;font style=&quot;font-size: 30px;&quot;&gt;,&lt;sub&gt;&amp;nbsp;&amp;nbsp;&lt;/sub&gt;&lt;/font&gt;&lt;span style=&quot;font-size: 30px;&quot;&gt;Y&lt;sub&gt;2&lt;/sub&gt;&lt;/span&gt;&lt;font style=&quot;font-size: 30px;&quot;&gt;&lt;sub&gt;&amp;nbsp;&lt;/sub&gt;,..........,&lt;/font&gt;&lt;span style=&quot;font-size: 30px;&quot;&gt;Y&lt;/span&gt;&lt;font style=&quot;font-size: 30px;&quot;&gt;&lt;sub&gt;k&lt;/sub&gt;&lt;/font&gt;" style="text;html=1;strokeColor=none;fillColor=none;align=center;verticalAlign=middle;whiteSpace=wrap;rounded=0;strokeWidth=2;" parent="1" vertex="1">
                    <mxGeometry x="429.73" y="948.5" width="340" height="60" as="geometry"/>
                </mxCell>
                <mxCell id="70" value="&lt;i style=&quot;color: rgb(3, 3, 3); font-size: 35px;&quot;&gt;SÌ‚: G&lt;/i&gt;&lt;span style=&quot;color: rgb(3, 3, 3); font-size: 35px;&quot;&gt;enerated Segmentation Map&lt;/span&gt;" style="text;html=1;strokeColor=none;fillColor=none;align=center;verticalAlign=middle;whiteSpace=wrap;rounded=0;strokeWidth=2;fontSize=20;" parent="1" vertex="1">
                    <mxGeometry x="110" y="140" width="693.13" height="70" as="geometry"/>
                </mxCell>
                <mxCell id="73" value="" style="rounded=0;whiteSpace=wrap;html=1;strokeWidth=2;" parent="1" vertex="1">
                    <mxGeometry x="618.16" y="440" width="316.38" height="80" as="geometry"/>
                </mxCell>
                <mxCell id="74" value="&lt;font style=&quot;&quot;&gt;&lt;span style=&quot;font-size: 30px;&quot;&gt;N-Layer Subdiscriminator&amp;nbsp;&lt;/span&gt;&lt;br&gt;&lt;span style=&quot;font-size: 30px;&quot;&gt;&amp;nbsp;&lt;/span&gt;&lt;/font&gt;" style="text;html=1;strokeColor=none;fillColor=none;align=center;verticalAlign=middle;whiteSpace=wrap;rounded=0;strokeWidth=2;" parent="1" vertex="1">
                    <mxGeometry x="646.38" y="475" width="265.69" height="50" as="geometry"/>
                </mxCell>
                <mxCell id="76" value="" style="endArrow=none;html=1;fontSize=30;strokeWidth=2;dashed=1;dashPattern=8 8;" parent="1" edge="1">
                    <mxGeometry width="50" height="50" relative="1" as="geometry">
                        <mxPoint x="400" y="810" as="sourcePoint"/>
                        <mxPoint x="399.73" y="710" as="targetPoint"/>
                    </mxGeometry>
                </mxCell>
                <mxCell id="77" value="" style="endArrow=none;html=1;fontSize=30;strokeWidth=2;dashed=1;dashPattern=8 8;" parent="1" edge="1">
                    <mxGeometry width="50" height="50" relative="1" as="geometry">
                        <mxPoint x="777" y="800" as="sourcePoint"/>
                        <mxPoint x="777.21" y="710" as="targetPoint"/>
                    </mxGeometry>
                </mxCell>
                <mxCell id="78" value="" style="rounded=0;whiteSpace=wrap;html=1;strokeWidth=2;" parent="1" vertex="1">
                    <mxGeometry x="250.00000000000003" y="815" width="301.38" height="80" as="geometry"/>
                </mxCell>
                <mxCell id="79" value="&lt;i style=&quot;&quot;&gt;&lt;span style=&quot;font-size: 30px;&quot;&gt;S&lt;sub&gt;k&lt;/sub&gt;&lt;/span&gt;&lt;font style=&quot;font-size: 30px;&quot;&gt;&lt;sub&gt;-1&lt;/sub&gt;&lt;/font&gt;&lt;/i&gt;" style="text;html=1;strokeColor=none;fillColor=none;align=center;verticalAlign=middle;whiteSpace=wrap;rounded=0;strokeWidth=2;" parent="1" vertex="1">
                    <mxGeometry x="275.03000000000003" y="825" width="254.57" height="60" as="geometry"/>
                </mxCell>
                <mxCell id="80" value="" style="rounded=0;whiteSpace=wrap;html=1;strokeWidth=2;" parent="1" vertex="1">
                    <mxGeometry x="619.73" y="810" width="316.38" height="80" as="geometry"/>
                </mxCell>
                <mxCell id="81" value="&lt;font style=&quot;&quot;&gt;&lt;span style=&quot;font-size: 30px;&quot;&gt;N-Layer Subdiscriminator&amp;nbsp;&lt;/span&gt;&lt;br&gt;&lt;span style=&quot;font-size: 30px;&quot;&gt;&amp;nbsp;&lt;/span&gt;&lt;/font&gt;" style="text;html=1;strokeColor=none;fillColor=none;align=center;verticalAlign=middle;whiteSpace=wrap;rounded=0;strokeWidth=2;" parent="1" vertex="1">
                    <mxGeometry x="629.9100000000001" y="845" width="301.78" height="50" as="geometry"/>
                </mxCell>
                <mxCell id="82" value="" style="rounded=0;whiteSpace=wrap;html=1;strokeWidth=2;" parent="1" vertex="1">
                    <mxGeometry x="250.00000000000003" y="635" width="301.38" height="80" as="geometry"/>
                </mxCell>
                <mxCell id="83" value="&lt;span style=&quot;font-size: 30px;&quot;&gt;&amp;nbsp;&lt;/span&gt;&lt;i style=&quot;&quot;&gt;&lt;span style=&quot;font-size: 30px;&quot;&gt;S&lt;/span&gt;&lt;font style=&quot;font-size: 30px;&quot;&gt;&lt;sub&gt;2&lt;/sub&gt;&lt;/font&gt;&lt;/i&gt;" style="text;html=1;strokeColor=none;fillColor=none;align=center;verticalAlign=middle;whiteSpace=wrap;rounded=0;strokeWidth=2;" parent="1" vertex="1">
                    <mxGeometry x="275.03000000000003" y="645" width="254.57" height="60" as="geometry"/>
                </mxCell>
                <mxCell id="84" value="" style="rounded=0;whiteSpace=wrap;html=1;strokeWidth=2;" parent="1" vertex="1">
                    <mxGeometry x="619.73" y="635" width="316.38" height="80" as="geometry"/>
                </mxCell>
                <mxCell id="85" value="&lt;font style=&quot;&quot;&gt;&lt;span style=&quot;font-size: 30px;&quot;&gt;N-Layer Subdiscriminator&amp;nbsp;&lt;/span&gt;&lt;br&gt;&lt;span style=&quot;font-size: 30px;&quot;&gt;&amp;nbsp;&lt;/span&gt;&lt;/font&gt;" style="text;html=1;strokeColor=none;fillColor=none;align=center;verticalAlign=middle;whiteSpace=wrap;rounded=0;strokeWidth=2;" parent="1" vertex="1">
                    <mxGeometry x="647.95" y="670" width="265.69" height="50" as="geometry"/>
                </mxCell>
                <mxCell id="87" value="" style="endArrow=classic;html=1;dashed=1;dashPattern=1 1;strokeWidth=2;fontSize=30;exitX=1;exitY=0.5;exitDx=0;exitDy=0;entryX=0;entryY=0.5;entryDx=0;entryDy=0;" parent="1" source="82" target="84" edge="1">
                    <mxGeometry width="50" height="50" relative="1" as="geometry">
                        <mxPoint x="1199.73" y="680" as="sourcePoint"/>
                        <mxPoint x="1249.73" y="630" as="targetPoint"/>
                    </mxGeometry>
                </mxCell>
                <mxCell id="88" value="" style="endArrow=classic;html=1;dashed=1;dashPattern=1 1;strokeWidth=2;fontSize=30;exitX=1;exitY=0.5;exitDx=0;exitDy=0;entryX=0;entryY=0.5;entryDx=0;entryDy=0;" parent="1" edge="1">
                    <mxGeometry width="50" height="50" relative="1" as="geometry">
                        <mxPoint x="551.3800000000002" y="479.28999999999996" as="sourcePoint"/>
                        <mxPoint x="618.16" y="479.28999999999996" as="targetPoint"/>
                    </mxGeometry>
                </mxCell>
                <mxCell id="89" value="" style="endArrow=classic;html=1;dashed=1;dashPattern=1 1;strokeWidth=2;fontSize=30;exitX=1;exitY=0.5;exitDx=0;exitDy=0;entryX=0;entryY=0.5;entryDx=0;entryDy=0;" parent="1" edge="1">
                    <mxGeometry width="50" height="50" relative="1" as="geometry">
                        <mxPoint x="552.9500000000003" y="854.29" as="sourcePoint"/>
                        <mxPoint x="619.73" y="854.29" as="targetPoint"/>
                    </mxGeometry>
                </mxCell>
                <mxCell id="90" value="" style="endArrow=classic;html=1;dashed=1;dashPattern=1 1;strokeWidth=2;fontSize=30;entryX=0;entryY=0.5;entryDx=0;entryDy=0;" parent="1" edge="1">
                    <mxGeometry width="50" height="50" relative="1" as="geometry">
                        <mxPoint x="470" y="295" as="sourcePoint"/>
                        <mxPoint x="618.39" y="295" as="targetPoint"/>
                    </mxGeometry>
                </mxCell>
                <mxCell id="91" value="" style="endArrow=classic;html=1;dashed=1;dashPattern=1 1;strokeWidth=2;fontSize=30;entryX=0.5;entryY=0;entryDx=0;entryDy=0;" parent="1" target="10" edge="1">
                    <mxGeometry width="50" height="50" relative="1" as="geometry">
                        <mxPoint x="403" y="360" as="sourcePoint"/>
                        <mxPoint x="403" y="470" as="targetPoint"/>
                    </mxGeometry>
                </mxCell>
                <mxCell id="92" value="" style="endArrow=classic;html=1;dashed=1;dashPattern=1 1;strokeWidth=2;fontSize=30;" parent="1" edge="1">
                    <mxGeometry width="50" height="50" relative="1" as="geometry">
                        <mxPoint x="399.3200000000001" y="520" as="sourcePoint"/>
                        <mxPoint x="399.16" y="630" as="targetPoint"/>
                    </mxGeometry>
                </mxCell>
                <mxCell id="96" value="" style="endArrow=none;html=1;dashed=1;dashPattern=1 1;strokeWidth=2;fontSize=30;" parent="1" edge="1">
                    <mxGeometry width="50" height="50" relative="1" as="geometry">
                        <mxPoint x="938.16" y="485" as="sourcePoint"/>
                        <mxPoint x="1030" y="485" as="targetPoint"/>
                    </mxGeometry>
                </mxCell>
                <mxCell id="97" value="" style="endArrow=none;html=1;dashed=1;dashPattern=1 1;strokeWidth=2;fontSize=30;" parent="1" edge="1">
                    <mxGeometry width="50" height="50" relative="1" as="geometry">
                        <mxPoint x="939.73" y="680" as="sourcePoint"/>
                        <mxPoint x="1030" y="680" as="targetPoint"/>
                    </mxGeometry>
                </mxCell>
                <mxCell id="99" value="Y&lt;font style=&quot;font-size: 30px;&quot;&gt;&lt;sub&gt;1&lt;/sub&gt;&lt;/font&gt;" style="text;html=1;strokeColor=none;fillColor=none;align=center;verticalAlign=middle;whiteSpace=wrap;rounded=0;fontSize=30;" parent="1" vertex="1">
                    <mxGeometry x="960" y="315" width="60" height="30" as="geometry"/>
                </mxCell>
                <mxCell id="101" value="Y&lt;font style=&quot;font-size: 30px;&quot;&gt;&lt;sub&gt;2&lt;/sub&gt;&lt;/font&gt;" style="text;html=1;strokeColor=none;fillColor=none;align=center;verticalAlign=middle;whiteSpace=wrap;rounded=0;fontSize=30;" parent="1" vertex="1">
                    <mxGeometry x="958.16" y="495" width="60" height="30" as="geometry"/>
                </mxCell>
                <mxCell id="102" value="Y&lt;font style=&quot;font-size: 30px;&quot;&gt;&lt;sub&gt;k&lt;/sub&gt;&lt;/font&gt;" style="text;html=1;strokeColor=none;fillColor=none;align=center;verticalAlign=middle;whiteSpace=wrap;rounded=0;fontSize=30;" parent="1" vertex="1">
                    <mxGeometry x="958.16" y="855" width="60" height="30" as="geometry"/>
                </mxCell>
                <mxCell id="106" value="" style="endArrow=none;html=1;dashed=1;dashPattern=1 1;strokeWidth=2;fontSize=30;" parent="1" edge="1">
                    <mxGeometry width="50" height="50" relative="1" as="geometry">
                        <mxPoint x="939.73" y="845" as="sourcePoint"/>
                        <mxPoint x="1030" y="845" as="targetPoint"/>
                    </mxGeometry>
                </mxCell>
                <mxCell id="107" value="&lt;span style=&quot;font-size: 30px;&quot;&gt;Downsampled&amp;nbsp;&lt;/span&gt;" style="text;html=1;strokeColor=none;fillColor=none;align=left;verticalAlign=middle;whiteSpace=wrap;rounded=0;" vertex="1" parent="1">
                    <mxGeometry x="408.16" y="380" width="60" height="30" as="geometry"/>
                </mxCell>
                <mxCell id="108" value="&lt;span style=&quot;font-size: 30px;&quot;&gt;Downsampled&amp;nbsp;&lt;/span&gt;" style="text;html=1;strokeColor=none;fillColor=none;align=left;verticalAlign=middle;whiteSpace=wrap;rounded=0;" vertex="1" parent="1">
                    <mxGeometry x="408.16" y="560" width="60" height="30" as="geometry"/>
                </mxCell>
                <mxCell id="109" value="" style="shape=image;verticalLabelPosition=bottom;labelBackgroundColor=default;verticalAlign=top;aspect=fixed;imageAspect=0;image=data:image/png,iVBORw0KGgoAAAANSUhEUgAAAUIAAAHICAYAAAA7huMiAAAAAXNSR0IArs4c6QAAAARnQU1BAACxjwv8YQUAAAAJcEhZcwAAED0AABA9AUORddcAAE1qSURBVHhe7b1pjGRZdt93IvelsiprX7qqepvep3tmehaOSHsokiIEyRoKghbwk+UP+mAQhgADtj8YFjCCAcOQAemDYdkEDYESLUqGbFEbZZqSSQ1HQ3Gk2Xp6ep3u6q59X3LfM3x+98XNeLFlRmTs7/1/hVMvtozlvXP/75x7z72vYGZFN5FxONBzbl9y+6LbTOmxZuG10UZK28i423G3i24vuO243Xe7WtqulR6L4HC7JYvOF9+v+v5BrLtdc/sjNz4v/Z5CNAv+Jr/JAaNur7h9zu15N8SsGXAOnGQiZQgq78fjY27PuF1wO+E24Y8W/R/Ch0hdd7vh9tAtsuG2XDKEK00zQhi/E/D3227fdvuxW/pzhGgWCWEOOOr2rBtCiGBxv1kQvnNuT7kdcyP6m3VDCAFB5XEem+SBlEshUojdkhuiGB1t023VjeeI4u668Xw7fOT2IzfEsFpchTgICWHGQZwuu/2UGyI47bZftJWGvz3p9lm3p90QPAQQcWz8HmWXKvrNQh3vIlpEDIkMr7ghhg/cEEYEccutVRbd3nX7Q7cV/w47cmvRAvj1N5KbIosgZPTbveGGgEUOEkMivVNuL7p93o0+QP6eVLhZIW30Ot6byHLK7bwb0eYRN6QLgWxVCPk73osU+YkbESi3E5r9tiLP4CU6dWaY191iv2ArkkAE+LIbQkgqXT1A0klif2LsNyQ6/NjtltuKW3TSgz6fQZk7bv/a7Z7bYSJLkU8UEWYURIOoCyGjf5BR4mYgHT7t9prbc25ElN0UQeD9iTb5jkSGCC8W03j6ExHCg8SQaJXvjwBGURWiGfBBkUFGXTIYxUXIEJd6RHGJ4Az0AxIJfsaNv60WnvTrOw2fhZCRhvMdKPN51Q1hjoMz+31+/Hv+lv7Q8X1lU4gyEsKMMuWSwSAHI75EhvVAJtJSgYjQZ/dVN0Q0ik+abkpLoerdoyAy0BPrHg/6fE4ACPgZt3nfB938viI7SAgzCAJGWomoEQ1Wi0GjqIrIi4ELhLM/jlH5zfjelOVccvuyG9+tnjhXkogffZyUC7UyuCPyi4QwgxDZEdERUXEb6okfj8XHERiiR2aHDJJwIGT0F77kRhkQxdzNwO+Po9EHi6fIOxLCDELjR9SIChGBtODBntCVbuAECAz9amd5oA7UBNYT017Ab6CUByEkyq0W6urvxfMMvvCb+Lt02ZAQ9ZAQZoayPMy7Me0t9g3yTL0DHYudqcH7ihsRVLXIRHhto+d6AZ+NUDMCTpSb/i6Nvhe/iwiXrRD7ISHMFIkk0K/GYEEzKSFRI6+lH66VqXf9IH5XRJ7b+8GeIBIkImw0WCREREKYGcoJIg0fMWzm4CJ+DCwQRQ66YNBfSHkPxeH8vkaRYITfQ1+hhFAchIQwUyRiWE8gGhWSIBSUqMRBlUGHSJC+QgT8IIHjeQaM2Fb+eu4dJKMiT0gIM0ZcCaYaFsdKwz3q7Rh8QCwGfWSVwRpA1BBBBoMOSuX5E9JjZtfQvxgI78Ovr9wfIt9ICDMC7RsxQ9ioB9wPXseIKlPo6BtELAY9PooDO1Hc+N4I+X7wWow+RfZLQPon6iAhzAhpgUAIG7V3XhfTS2rz9iKlIYLfECPZZnSNkiBEszZFFiJBQpgRiPJIienzI9qr1+ARDV6HKPyMW5xFUk1MQwcZaiWbKYuJP4UpeginHF7UQ36RERA4xIEGX0/cgMdZm5C5u3E0tZ7m1VtMddDgezer1/G1cnbRCPlGRuBAkhojbvUOKkJAikjpSSxKHvaDT0TYKPoVohUkhDkAoUAg6RNkpgWCmQUYIaevUE4s2kU+lANiITKiwTYLERTZO9EgUa5WmBHtIiHMOAgEs0ZYcZp+waxEg0B/6H59nUI0i4Qw4yASjBKTFtdbm3CYoY+QomrEXY4s2kH+k3EQP+oKEUNSyKyAoDPgQ8mQIkLRLhLCIScKQIz82EboR0MEmY5GeU0WxQIxZACo3rTC+kgyRS0SwiEnlvwhgAwcxMUTiP6YNcLKMixdldXmT3pMbSR9hfUiXvZP3EfJNt4TooyEcIhB3BgwQAC56ly8WBMjw6zDxxXgqBlkRkVWQfj5jUS++800iYIoGRT1oC3JN4aK8iEjCvyC259w+zk3hPCR26YbAkFEiFBmqW+wHuyN77q97XaDB5zo1HFv/cDtW24LbrtuQqRRRDhUlEUQkfu626+4/UW3z7vRR8hiCqy2EvvN6BvMOuwVagoZGKoHF3pHAFfcokAKkUZCOFQkzZhIELFDCH/RjUiQPrK48EJck3DEFQKRyANEwOkayfi72WN33R64ESlLCEU9JIRDQaWcIXLMGf6aWxRAXpF+Vbifw1Zf/ZNJg6+6IYZCNEJCOBRUNm/SQAZFmDKXLpfJO9Ungy2/RyR40+1JeESI+kgIhxBSYfoESQd1ABuz4ycQ+gXX3bbDI0LUR+1oiOBgsbr0l9zedEtHP6IM8TOG+C2WtkLsh4RwiCANZlXp192oG8xhF2ATlE8PRILXS1sh9kNCOETQN/gn3Rgx5sApIizD/kicOTk9bLnRL3jNTUIoDkJCOCSMueyddPuK32YmiUSwEvpLY58p+2bJ7Z4bYogoCrEfEsIhoOD/qJFjXUEuwcnSU0qLK6HvlPpJiqqZSfPQ7ZYbIqh9JQ5CQjgEFEv/uBUjQUWEZdgzdBsw5/iLbpwoiAQRQiGaQUIohh5OCjgyEeHLbj/vdt4fXdfpQjSJhFBkBvoIWYWGVXfoS2UrRDNICEWmiP2Bf9Jv/eVCMbML0orOIiEUmSKKHiPrr7kqMgOH/kMh9kNCKDIJaTKL03LRKtZkFGI/JIQisyCGrNu438rVQoCEcIig/0urKzcP/YNEg3JycRDykSGBwmBmS1AorCljzaOBEtEMEsIhYceNJaVYZBRBFEJ0DgnhkEBajBD+2O2+G0tLxVIRIUR7SAiHCC5C9E3P9d71rVZc7gRKnEWChHCIoJ/wpoeB/9i3v+VGf6EWHW0MMseASWMnV0wtEiSEQwQjxqtu33ZDCH/PjYsSaZmp+rCQLRe30nVdxEFICIcQlp9HDP+G2w897OG+qIWluViRplxHyIJmQtQiIRxSiAw/dfsXnt2949s81xcWa9QteQDnZh3HspMni5kJUY2EcEihnIYymh+6feKW59rC2us3lx+Qg4tmkJ8MMYghdYVcl+OxG82/NjrKL+wfRtrZCrEfEsIhhnSY63J85EZUiBDWRkf5hYj5bTfEsEz6TKGzhkiQEA45iCF9hH9Yui3KbLpxomBbJn2m0FlDJEgIMwDp8Y/c1KwrYSbO+6WtEPshIcwAFFbfdMtrRFivX5RRdfbJ99wqy4uUDotaJIRiqEEE6/WLUmz+m25MRaycfaO4WdQiIcwIzC4hMqzsD8s+1SLIfmDw6Ftuf+TGiLGkTxyEhHDIiYnehtt1t7VwL5/EwZH/142ZNzfchGgGCeGQE6MdBJBIKK8DA+wH0uDvu/0vbt9x0yi6aBYJYUZgQOC7bo/c8iQA9P9RTP5P3P57t7/uRmQsERStICHMCBQPI4S33fIy3Y7+QNLf33D7+27/0u0HbkTF6hcUrSAhzAg0fhZspaZwgQcyTdIzyu9E+P5nt992i7NrVCIjWkVCOOTEJk+KiDD8xO0WD2SaRO4+dPv/3FiTsfHsESEORkI45KSbPP1i/8LtD0q3swq/mWJpSmR+142BIkmfaAcJYcZ4z415xyzPlUWB4PcQ/f0HN34nI+VaXUa0i4Qwg7DiCoMHFFiXI8Ns9JvRBcDA0O+4IfZCdAIJ4dBTK3CsT/hNN8pImHObUBkbDlukGL8vg0IfuNE/iNAL0QkkhENPraRRPsPo8T9wY1WaeuU0wxYfxu/LzBEGSCibyfOq3KKzSAgzRyIZFFj/Uzf60e7wwJCD3PM7mDnCAAkXuVfRtOgUEsJMgQgmESLFxqTGLDxAX1px6GLAMvwi+gZ/13/D33H7d367XCs5vL9LDA4SwkxRmybTn0Z6vOnPxQiq9lWDDQtKsK7gN/2bv+VW+f2H7deIQURCmHGot2Mllv/bjel3RFbDFENRGsNc4n/txiwSDZCIbiAhzDikkKzE8jfdSJOHSUiI9ejr/MClm6W1rrhV9wsqMRadQEKYA7iKG4XWv+qWnnWC0JQTy8GRlPid6OdkcOTX3Pj+8Wp06W+qxFh0glG3byQ3RVZBLEgxia5IM6nFe9Ztwg0HGCSiOJPCE8n+czeKp1leTDNIRLeQEOYIiqupwyM9PuV20m3ObZBABBFsZsewxiA1gx96CKhSGdFNyDKUXeSMo26fdfvv3H7WbdJtEPpIEDtGiLkE5992o16QEiAhuo0iwhxC2kmKjMjQD/eC27hbr8WQM3Ds7+M26S+Ly1II/ltuFE0rHRa9QEKYQxAdVnCJ/YU4wXNuU269JIogYsdCCgjgP3P7t24ssopIC9ELlBrnHPoJv+D2X7l9rnR/zK3b4HREpggxU+cYFf5f3SicRqArkZuK7iIPyzk4wLQbfYa/4vZ1t2NujdJknCVGcq2S/luiQK46x6wXokBKe4gA6SdMpgPKLUXvkMeJIHqMHv+0259y+zNu59yqU+XDiGDaueLfEvERAf5DN6YAUij9sZsQ/UJCKPY47faq28+5/TG3p92IDmfcEEVS5sMIIZEeo8GxfIeLTDHtjxpB7vOcymNEP5EQigoYOCFV/iU3+g4pvD5TMvoPEUZec5AgkvoyIEMfIKPBjAAjeqyEw9JgLLXPTJH9BFDOKXqFfE3UQKp8pGSzbkSEZ91VfsFd5T/12yfca8YP8Br6/7ieCLWAlMQwCrzq78HcZ8Rxzd+rLIIF/1e9qkzz7O/EcnFxMPIS0RAEkegvRonPuL3hhkASIR53qx5hxpkQOi6xSb8fAsioMAJIlLjdpOQFx4yV3vwh+bU8VXQJCaFoCRwG8TvrxjS9eqU21AQyje9BuNcivKELYMFD0SLhKCqMCLIuP52MbPctMJRLi9aR14gmwVWgXXepfp/U/Th8zZA14ScjNAghOTTXJuXK9RjDzvx5eIs6Lpx6qM6zQtQgPxEHkjgJ/0O1uzTrQvu8jqcQvAtu590YlUEEEcYIYsjwMuEmIy+MwLA6AwIpRJs068VCdAcEkKFoRPCEGytC0CHZCNJiOiEZcqbjMQ5J048oxCGREIru0ci7/PGCC2CRlR7oB0QEX0webwmiQToiGZWh/5B6nX37D4Woj4RQlGjOFZJXpf+vpKl3iQLI0DOp8Lwbq8S2Ch+045+45jdu+Zb+w0d+u1SX09R3EcKRr4iWOZTT8EfAUHOszqYfkDQYYYzPtwpfJA6mYKTMrC/maXNhvRvO3ejXqykNMzp6eYPyFIQngoiwDAzb/Tyh3rr+vJ6/w2LRIaRfGx/nMzEEEKMvsBvwW+LIclK5nQyyNEybW20CUbGr/0ZNaZjR0csQlQez6tByF4GK00UiLg4hckIowsvj35X/PtyirIUCZ4hPRRFFYEr1fwFeS7TH6xBCHmd6CoYo8ng15Y87BHX+mO9FdEgfIqPLGMLIa4v+2ijg8W/5c9Ls6vepupvA66Duk2IIqXPkxbDS6GAWXIyKiOArbqSm3I4vThtUv0Fs8/UELPwdb+6KwnONXosYcj9uI9wOn7d3o3Pwdggdo8nRgvA5iL6LZIFRZ//sIsLoJ4PCQ7+97bfTX4Xb0eLfi8zRBQ8UAwUDEZSlYCwvQ1SGILVDhdcMugvV+X6IImLILBXgaSJIRp6rxY5oFyNaDMvk+It5PW/La3mfvWi6RPxIXo+JgWfQvVi0ROlwsqE/jn44ZmkwOIEQ8ji0e9QH2WtqvlsbX5Y/jUK37XfY7vh78XY8h6AidAhq/Agej9A/ibhCSRQLbgSgAbbxtugrbXiJGDT21nBBBBE+1t6nv45UtfooVx/5cD+2Yp5IvaDGSwgpeaDiwdaped8ukf5ZED8XK+zzJSqeauHLpl/KlsiRNchuu7EaRUzTMW6nXyv6QgtHVwwNpMDP+qE974cWUeQoi/5BCyO9LkWFSYSZeowt0SPTBxnUqU7PS6ixdg/t26zAkWTkljSYdJjlYajRa7c/UHQWWhsiGKPB0P/ohiDGOkjEkG3ss1QL7ToSwizAUWQkmIGRl9yo06u3PpYYbGiJCB9pNMYcasTQxbLgj6uhdg8JYRaIhcqUxzBAgiiK4aG6FSKGDMCwzPenbiwsscaLoPxCNd7OoX057BD5MV/3kht9g9xXOjz8IIb0JZIi33BjtkwoCBfdQE1mmOHokQ7TH4gIEgnqiA4hMdpLwXFkdg4F8KzOQ7+v+ny7hnbrMEK7oSSGhvKUW3q2iBh8mj1O8XV0e3BtVY4z0xX3/l4HvFOwJ5UaDywNDg+iR53gRTdGiRFEhFFkE1wgjixzUWhqERlhDqgJdwLtxWECsWMwhAiB6IAtIqi4Pj9cdbvmhhiq5XYMNaFhIPYX0R9IKnzZjT6jTswbFsNFPAnSX6jMuGMoIhw46hwSnJ4GcMGfe8qfU41gvmFpMS4YzWgyxdmibSSEA0bFAaE+kPUD6SinT5B1BNOd5Tp6OaN0wOkrpLbwR26U1NB/KGdoC+29QYS+QATwuBuRIAMiSoNFhBbLYMn7bnfcVF/YNhLCQQIBZESYVJg+QAwh3EOHK9eEw89/DinxQ/eFn/iWgRMKsMWhUcvqEQftaJbQYjCkeNlfRWc4aXBNgbQOlyiBILKa9od+m1FkZqA0Qm5zINpFfSDsdPr6GAlG8EiBuU0kSErMbQZEeKEQdSk1XQZOuGrfFTdFhYdGQthLSH1d7ApHfafT5xeFj/QXYVQfoGgFWi/zkekn/LEb/YZh4ES0ioSwo9TZnTyEIXKIH/1+LJUVF0fAwp/5f/xpQYdDtAgjyLGvkBFl0TJ1Wq7oGIgd4sdsEIqhSYG5TeobBTJ9CMJ9Jx4RHR3RDIwa33Zn+dCdRSPIh0JNrRswyMFqMIgefYCkwDEVpjaQPR5FrxF7oqhDJA6AEWSW+f+uG2sYipZRK+sEpLcIHAJIFDjnu/WS71aKoIn+qmlGCCEcHR0iUWI/V2DJ/++4saq1Zpu0jFpZ0zTYVTyM2CF6rAvIwAcDIAyM8JwQvYBBEgqsb7qFC9eLVpAQHpJwFUgXwCKDH8z8iGUvRIUSQdFraMWMHlNGw2rWoiUkhK1CGlwqgQkF0IggAyEIoBD9hAs9ERV+HO6JFqBZizrUBHQ8wN5i8MNT4OLzBSu+6LfjEvlC9BsG48hK1KpbRrusARVhMiLo6W4BJ0P8XnZDAMf9iaiYNcopRB+gMJ+Tddof5ZsHIiE8CJyIgZDPuDi+7lsGRCiFGXOpTBc/q4NB9Bt8Fatu1fLNA5EQNoI9w9mVwRAulcmq0Fg82+osKwYRyrco5RItISGsByJHvx+R4OfcXnA75pZWQJ1lxYBRoOZ00q06NdZZ+0AkhCn23IVaQE+F7RU3OqD3QP2kgGIwKdJVM+lG100F8tmDkBBGXAWLRIGUw5AKc1FtymKoCRRiWODETWmXWnZLaHcBoWCcHcL1Qc67kQqnC6OVXYhhgH5tivsRRJ3EmybXQrinbTgM5TCkwlw0fS+1SKmfsgsxLJDZ4M+IomiKXAvhnraxNP5ZF72jbqNue/on9RNDCKPGp92JGTgJzrzn0KIB+U6N8Y949jzhosdt+YwYWkrOSwkNa1/upcc6oR9EvlNjhI8BEYRwjkdwmGqnSSmjRFIMA7TqmaIV3GxCItgM+RVC/+VFBkQ+78YoW0ORSzmSfEoMMnGmE76Mf8fVkMSB5FcISRsQQiJBUgkhhp30iRoxpK8w+LZSmYPIrxBSfU9azB6Qn4gswqjxhJy7GXIphME1SIfpUAYekL+IrEE94Sxhovp0DiJ/QuiCVyQtxklivaB8RYhckz8h5Bczg0R9gyLrMFiCaYbJgeRPCBG/Ux4W1qzQIUTGiJkPYpjLTrDmydfu4dcykjbveTDOIURWiSd59/MCGVAqKtT5v5Z8CSHRIP2C1FYpXRBZJvZ5e+YTrrSY6gZSd3gt+RJCxI9IEKfQaVHkAU76pMdKjfclf0JIbRVbCaHIEvv5M89xIW75fEPyJYT0DzJarLOjyBos079HvO1bfD10CXlCXEqPpYe15DMilBCKzJHu+Yu32brssbRcql9cfYS15C8inHGn0ClR5AV8Pd03LuqSLyEkGmTdQTmEyDSpMz0r0nANbqaUaiWahmReCPdcgjMipmhQZJ6q5Befp7iajEjUJfNCuOcSOAJCWOUjQmQeWjmDhIoIG5L91DhGgBRS11zvVYgcUCGESonqkWEhLB3wGAGy5BbrDwqRa6pTIgkjZFgIqw44vzT78a8QjWGQsGagUH1FkA9piCKok5/IM/SRq3uoLtkXQsSP0TJqqRQRijzD0nP0FQYUFaTJrDTsHWZukA5ofrHINe78LL5APWFoCEqJ0+QjIkybELnEhY9RY8rIKLBWW6ggF8mijrkQDpkR3USYGkUFmRXC2sBfIaHIObg/XUTqJqohFxFhWKGIOZfqFxF5hnZAi5cQ1pCPPkKNGgvhbcEbA0tyKTWuIT9CSP+IDr7IMyOeEcV+QrWFCvIRI3HQowmRa9Q9VA8li0KI3CMhFELkHgmhECL3SAiFELlHQiiEyD0SQiFE7pEQCiFyj4RQCJF7JIRCiNwjIRRC5B4JoRAi90gIhRC5R0IohMg9EkIhRO6REAohco+EUAiReySEQojcIyEUQuQeCaEQIvdICIUQuUdCKITIPRJCIUTukRAKIXKPhFAIkXskhEKI3CMhFELkHgmhECL3SAiFELlHQihEziiUtpC+nWckhELkCW/xxalkC8Vkk3skhELkiTG3GbfRcE+UkBAKkScQwNnSVuwhIRQib5APKyeuQEIoRN7QCEkNEkIh8ojEsAIJoRAi90gIhRC5R0IohMg9EkIhRO6REAohco+EUAiReySEQojckw8hLBQSU/GUEKIO2RdCfuFM0WxU84qEEPXJvhAyuZzVNlh1Qwgh6pB9ISQbnnTTahtCiAbko48wjboJhRBV5E8IhRCiinwIYXqMROMlQogq8hMRSgCFEA3IhxBWlBCqk1AIUUn2hXDXbdVtO9xzFBqKvFERCYg65FAIhcgxtIfN0lbskQ8hXPez4U5yV2dGkT88CyqUMiECgkW3vfYgICd9hOl0WKmxyDEI4IabIsIK8iGEQuQdzv+IHxHheum22CMfQshZMAaCyoxFXkEEiQYlhDVkXwgRwC1XP5xAB1/kBU740SKI4LIbg4fqI6wg+0LIAefAcxZEDNVFKIaVamFrBK+p5+crbktuagM15CMipFyAs+EWDwiRE/D9KHpsEcEn4Z6oIh99hEX3AoQQQRRiWEkLWzoybCZKJAhYKJmoIR9CCKQFWDNOI8SgEwUR0rcjaT/f8TtLbgQDoi7srnq7MXucdXvG7XK4J8TQwoLrJ9xw6Utup91m3c65kfneLYlg2Hjr3t4u2N1HRXvnQ7Mbt8NToop8CeHTJRNiwOHKElNux0u3I4gddr5QsMvFor3oLfiCt+A5b8qXC0V76Lev80J/PArhlkeE1xaL9uvvmf3+TR4U1UgIhegHQaWcqtZHXxUToeb8+UtuP1Us2FF/kW/Ca/+sb150Iyqc8sfG/LGD+rf4iI0ds//yh2a/eiV5TFRS2r05QEIoBhJvggzm+eaI3/ui21fdPuf2nNtRtxgR0lBPuSGCXIIniGbJDmLH//gb75r9mgvhPUrJRAUSQiH6QpSvpPlddPuS29fd3nCjO/ukW70mGu81I4BpfuOa2d/9xOz37pUeEHvkZ9SYwmpV04u+g3xVStiE2+tuv+yP/wXffsGNwZAyyesr/qr2bfbHX/uqh5dfPO7RpN/e+9NW3iPD5EcIKSZlepEQfYV4rmSlVZFOuRq96ds/7o+R9o4gVHsCFV9fhqfC06HjsEn8LS5Nm70wZzbnuTZiGB8XuRFCP+oUlGpmiRgkXIQK/o8+QfoG591Cg0xpX+rm3jYQ7lQ8sj/eBGZdAM9Mml1wQZzMTwjUFPnZHSy4oEUXxIBBYPZTbqTGpMgtxHgtg/gdGzc77WI4LiGsICe7o4UzpxA9AtEbc9/8vBsjxHhpdbbL3Xri2EpWDAxMj/nfTI9WpsYtvk1m0XlBiD7hGao9izgld4MSViymvg/Nvi5SKXjley2+TWaREArRJxDAy65EbJGm8gBJ95j0iPD8dNEmKEQUe0gIhegT9AlSID0e7nUfor8ZT4ufnjWbUsuvQLtDiD4yUkpTEalupan0J2J80rS3+IuMGisirEBCKESfYPocAyVsuwn9ibFPsQfZ91AiIRSiT0y6XShte4nEsJb8CGGcpS7EgIBLzroq9TJL3fXIcMuNchpRJj/SwNwlVq8UYpBAkAjRonWZzV2zBxsuhppcUEFOhNA9jPyDYTohBg0Xw3Q/XjdZ3jb7YKlgq1qApIJ8pcYaKRMDAq7IeZkawl665YZHgvcUEdaQEyFM5x9C9B9qB+fcellHGCmog7CGzAphreRx8OUAYjBg1WmuSRJXmxb9JbNCKMkTgwxRIEvzswp1ryNCUUt++giFGCDoGzzmxhqEvRHCQrhuCX2EazuFUEYjykgIhegDVHLFS3X2pue6GEaKKZ25sVYMgijK5EcIucr/ZnJTiP6RDNpxDbGX3XoZmG37h625GK5sJ1e1E2XyI4RcwlCXMRQDwnHXwzM9LmJABBdcBBe2ElEUZfIlhGtucgDRVxIHnPMN/YO90EI+EXvsGdFdbwdLighryFcfIdX0CKL6R0Sf4brFr7oY9UKPkmTc7JMVs/cXw0OiinwJIX2EC26aXiT6SjGMGvd66vuVZQlhI/InhDiChFD0GRperxvfbc+Grq2W7ogK8iWEXNeYi7ynU+OYNzRDXOo3Gn+4dz95iRDNwjVK8KJOENyxAbgmgyMMkjypurZ3pz5/2MmXEG67cUbEGYIYlgSswosauMb2qNnSERfSlC3N+dZt1ZOczSl/z3ztTnF4gtt18OTJyjVlN670YUaLv3W/fjTYwa8w1LDH8rMvqF5lXfQvuFHWXzHJMzpPancgbIv+B4jdiovdCj07TtrhePmIq+qYq+zxx2bzT8xmV5KnhagCF7zo9tfc/jO3Sslqlzo+7DBa/Peumv19t++6i4pa2HP5EUICthn/ya+5oHGV64I/sBPVsI4TIYR3z5o9PJlEf5tMhkq7btx9bqMuhqf9tHvpmtn5O4kwClHFlPvMV91f/qrf/rPuPjGS68xahLU+zFS6O+tm/8N7Zr/jbnlF5+i6xJaccaKDOKMugMdf9K2HhJsuiKS46eerdwliuNcHWPU6HtvzYN+Oeg5y+brZc1eSyHCk9FzIWeLrRJ5hxZmfcd/5q+4PX08e6gx1XIy7rEiN+P03b5l951EyxU7UQoyUA3CJkoV016O7J/NJyrvlUd6Wi2PYutEXuO33o+3463cRPTwtbsHfK4hg6XGM6PLuGbNPnykJaPKy0n9ChMVY33C/ORfdqFM0cDEGSSigvr7qbl81UCLK5EQII4iTi9vmpJu7JELXKjhwQ13zJxk4eXQiiTQP8/4is+A6XDHisvsPs0rCA12Et2ek+ONld8nNJDoU9cmfEAZXpF+w5IVhw3/unfU6angqWlBAXlfahJeXHgs3w4uSyPLBabONXl+oUQwyeB8RIeN1UyW32UswOk3pfW94JPjt+wVbqamd7dYHDyc5EcJ40Nm6CDJIknYEFK1Vv/DX1zhxFFIXwsL9khCWHhJiTwjdb+Ipst65txNQmsNAyTuLZv/werFOWizHTJMTIYwHnUiwKiLsJHwMtjNixXX/HFLjrp3yxTCCN3TJ+yrg/X9SmlJHWqxFFvYnF0JYdjrOx3Nu9N110RUZKFmfSvohd9RPKBKiCHIq7rZXEA2+vcClO0sPiH3JhRCWgzIXpwJXieiSG/I52K67O3WHFGHTXyiEQ2NDBOddpCij6RYEf4wWv+fRoOoGmyMfqfFeWoAAct2wHvxsOn8o0Vmga1yIxOtiTsJ2zy1LdKoXZcfPxpv+5tfXkmJqcTD5EMI9EEKmyfXoZz8+7kLIXD4hyt5HjoAHVutepwZOFreK9gf3kz5C1Q42R46EkN4Zd8Ei5+IOnXoPIizS4Od/Cq01aJJ7iAS5Vgnp8Z43dMEtmD3yWzeT9QdVO9gcmRfCsp+xDCZpsZ92O3TmPRBO8cxaWXFBTAthuNmFFiAGhDrH1h96we2X/caJ0kOBDvoib4UtbJp9857ZfU2na5rMC2HZzzgPu+GjPdMg/yBE8M5Zs+3UoEn4Uh1sAWLAqD22p/0hlub/crEYTsfdALdmOh0LsD7QTJKWyFFqjPt1ywX3YW3avfJUUkpTzNHuFnsgUC+6veHmp8Suls7ccxH8eMVsfScpoRHNkYuWWQiuyCoznh73qK9ur+MbAWRNw1BK080mIAYRvI1GxhKYr7t1zf1K78tI8TsLKqBulRwIYcETFdJSBkkQIveQHjhJMXomns9Uu+uXzBbm/X56lyPR3WoZYhDg6OJ9fvTtQul+V3CfRvw+9WjwrSeKBlslB0LIT6R/ECHs4c9N10KwtNd9T48fnDRbZtAmUuyFJos+wtF+0+0lN/eAroHw3dsw+2Q5WZJfQtgauYgIy9GgCxJ3u3VabuR8HgUWEMCHJ5Ii64r8SB6bVWhcp93ZfskP9yt+O30K7CR40Mau2fceJ4sssDS/vKo1ciKEnpwUsC7/3H0ENjgmNYVBCP17NNVZ1MxrxGBSCHnIc37k/4of/BeSB9sHl3CL7oNfkRIvb5v9g2tm336QTK8TrZEDIYQBERQWYmDghHnIzEcuOXVCxZ0S8uhh5gU/nv+RbxHEjlHHJYgAuSjTT5ZqL9cpmiMnQjggsCzXsovhjSNmKy6ELJYprcsknNKecfuSW8drBdxnYhc0n0PhNJfrZF6xagcPR05S43rRVo8JH+/eu1qwwrUxG7k/YpNLIza3MWZzm2M2FhxYqpgVqFW44PaKH/duFk0hfKxC/S1PiRdrLpzYZ58fInIihCx6NAA/tegh4PaqFVfv2/SVbbt8ZdrevH3U3rx1zE6sMaAjsgLexnVJLvi5Le15nZYmCqhZbuuHT5J+wkp0Ym0WjkvG9xazST7jv5QqLoqq+0jR8xe75g3jmn157Ki9MTVnT0+wHknBHk9v2b3ZDbs5t26fzq/avSObtjxR49liCBh1+3Peqv6yt64/7be7EZdRHrPq59X//YrZb143+/7jypKZHDTsjsIx+0ZyM6sQaZ11z2Dtj9R8356CSyJqN91u+07fsJ/fPWVf2Dxml9amQzT41NKUnVuesuNr43Zka8x2C0Vb93x5fVydPv2jdQnjtEbx9F/xP/1p33ZrNco1dwtWoP6NaxaW3KquG+yG+GaZHKTGg4B7aXHVtwvuoMsuhAW76On6ySDSZZc9ujFmLz+Ys1/8+LT97Kcn/fYRm90atcmdURvl2sqtoJbQAdiJdXakPxQeLT3FwMVosWBjbuf8/s/541/17VPh2c6D5nGZzt++nVyqs17xdJ2HxD7kIiIsUNNfIC3uV0TI8DAXj7jv8rfm8emkN5TjdiJ8t0roZEco59fH7Zkn0/aZR7NBDDc8Olyc2i9Vjq1TtAc7sWTp2UHV+5fb/vT4zogfnzGP5Mfskp+wvuZP/BcjxbDu4J63Vf1pO/CNWFCBJfh/7ZNk8VWKqUV7SAh7RYGm8MijwDX7ss3by3bE/9WOJ+LovHKi1MAQRFLn06sTdsJv73jj3BpNTHQS9nqUq+b27fmlKfvsvTn76o3j9tr9Ofv5iR37xdlN+9zIbhie2xO/0o29+4eEv+ebve/n1H/u0eC/umv2ZNMjwvCsaAcJYU/Ahcdd9hbssm3aL3gseMajwvHQM1HZPNKLMIwURzwtHrGTLoQX6ENcmQwp8tjuSEjFsBFe7yJbrIheRHOwr6NFGu9HTk6UOp3yk9JTi1P2+t05+/LNefvK7Xl70Y/N146v2ufdJjkkpb8J29Kd9KccBv5+zaPBP3hg9htXzT7xqHBLKtgRJIQ9o+AR4Ja94Lv8j9u0y2BceaayeSSPlB9PXlWwcRfAYx4RvvTwSEiXz3rD43HEcstTsU1PnSsWthEtEI9BYxH0XewCOGmveOT3tWsn7c+/e94+d/eonV+esin/8xNH1+382SU7dmw9HsRgJAKco7jbCVhm63fvmP2TmwXbpMdFdASOT8ZDiVn/kS97xMSSmH1YmHWPoj1TXLI/Zsv2dVsvtZOkeXAAmm8o3gBGd2xlfNuWJrdtfaxoD2c27dqxNXv/1LJd920ou8nBke0miBf9fxc98nvmyUywMysToavi2Ma4HfUt4shunprcsldfu23nzi3akdna9fE7eSi4Fsn/4dHgP71Vf5BEHI4cNJfBEcLXi8v2H7sQfs2FMC1/5VvNU17Aq2Cr4zv2YHbTPnUR/OTEit2aW7f7Mxv2YGbLtkc9Uiy9UtQH0RvziHtmayxE3ogc6e9pF77zy5NJt4RHfnMbo+F18QRW8D+cnt6ykydX7JVXbtvckQ0b9f1dTScaGQsrkBb/j+8TDZq9u1h6QnQECWEP+eniQ/tZW7Q3fJfHxtQeHLrK97mPIM6v2gcnl+yDU6v2eHozCOXamLcif2nDg50pT6j+MfV/HAI4sTMa+v3m15K+v5ntUXtqcdpeeDBrzy5Mh6iwlmTZ3QmPvE+fWbJnnn4UtuPJPMnOUPWVVzzIv+Zp8X/9Q7Pfv5+IougcmXL/+gyGEBaKBfslu2t/whbsdNdmnxaTUWXP2YgEN0fN3j67aN+98MS3S/74ru36c9k94LgzlgjSfs7Nc4jc849m7WtXT9rn7hw1BuI5TkR94ztseV18z0ooc0L8Ll9+5PbYRn3fhsKAbuDf64aL4G/fMfvbH5n92KPB8LuyeyB7zn6+khH6IIQ0KDalhjHlD7xWXLefsyf2uq3YZMVoMbu/nRZU/vvwmeE+JPceenp8d3bD7nmkuDi5bQ89QrwTpvGt2YpHNNt0dA09yW9NSN+G8n3E7czKpJ31dJfBJrbcv+yR36nVcX8l8pYm/Z4JpMNTU1t2+vSynT+/ENLiev2CnSD4j3+FbRfkHzwx++vvmv2HR8l1i0VnqfaaDNJHIXQb94Zzyrbtl4oL9llb82gwLhiX3vXlhtY6vEfy9zTjvWulBMrvT4zE4AoDKzfn1uzKidUwwHJ7bsOeeMPmL6NwDx/pfemU7hLdcROtP+lpL4JHkXqYzuiGCE5tj/jzyR80FkJ/L3/J+PiOzbronfB9d+HCgp2gVGay3vHsDFEIuUTn798z+5Xvmz10EdRSW52n80dv4OhTalzaq/O245++YX/JHtkZF8Sxvd0dtxyCTkBDRs6ar6H5nqfM37n4xN7y9HnLU2miwx03hleGVxRL0908vR3zCHB8dyREgl++NW+/cOVUGPRIT1fkKNT7qeGU4k+MBNu10dGdUBpz8eJju/DUgk1P7YToMNnv/M9+T+6z78JTbZO88/VVs3/pafF/+7aLoutuxQrUvISNP9aRj8wpyZ7ONP0Vwjc8CvzTtmAvuhhOu8SU/LZL8KGNPqE24iE1fjidpM4PPFK8fXQ9rH5z07eU4Axj2ozoPf941p55PGMXliZtfmM81F+ymMX8+pg/zwTGSOP9NTKy62K3Zcfm11wA10L6O+f7ZXZ20yZ934zU7JvON6X47f7NfbPfvGb2dz9N0uThOyqDT+eP3sDBJXNe9l/a+9QY8fuqLdvP2Iod8ciwe/XO6UNYv2E3gghw3aOdJW/cC1PbYTkw0ufr3ugXXQioV2QkenPUI8WqMIfAasejJQZWq5/rBUR2U/7hR13gTq9OhnKX0/T9+ZYRYARwZmvU01/KXviL9L6J37f82Ij/hlF/Ienv/PyqHXcRnD3iJzDfJ5OT24kApspjWtvTh+fXXQB/9YrZv38oEewWHMuM79seC6HvTabrEP39Jx4JfsVF8Km9fsE07PZONaXaRl2fxoc7pIL+j2cRR0pwEMXHU5t21QVhbXzHthG71FsQMYbSnHGWC9uxDRcJRq0P/Brt4h9B3x5lL8zDPr84aU+H/r+Z0P9H32Ak+bp84eovVfoRzpiL38TETogAJya3Qh/g2bOLLoZre3WBqZ+d4A+ktb9z6XAt1A7+zQ+T/sG9jwhfqOZbiUOSgz3ZSyH03VksBhG87OL35+2JveqpcblfcHggwuNb09aYx1z5C5J762M7Hi0illt221PqW3MbIaVO6dABxHet/oP9Hne59g94+smUPefp7+XFmRAREh0y7zoRwcpvW0nyHhF+GdHf2TNLdv78ks3MbITob8x/G/2D/ST+CvoG/8b7SQ+w6A4HeU0GSPoIWZy1WOhNRMigyC/akn3Jo8FzLohJnNXnVtVREpfZ8Z/EHOfNkWQBWRaS3fbb3XYoIteZrRGb3RwNqS+LUDSmdt/Tv4fQzXjE+9TFx3b8+GpIh6emXAA9AiyUagL7fcT45hRO/7Ufm/0tjwhF9+BYd9tv+wyLLbzmP/SUb6dbiFYOx3Rx116wDftle2znbTNEhwn9blZZohW3LQsho7yUwBw9uu62Zsd8e/bcokeBm0EA09TKZ+/Z8i/xwZLZ/+SpMavNiO7Rvf77gYGfyOpwvUlQT3o0+Blbt4suhjMD0Zy6QX9/U+XYN+x/ZBHAJALctBMnVuzy5Yf2wov37IUX7oWR4GoR7C/lfcsSWz94XAizSkR3yYcQFuY8Ehzrevuls/w5jwLftNUwia7Uy8YzPJ0Z6gtR9WOdJf3utZ/eaP8WQxrMTBAGP15+5Y594QvX7fKlJ3ZkdjO8D8csks4WSL/7Q/KFkGZWnn5/qRiuVJctDxo8ciCEuBA/s7uuxLsfKeyEiPCE7aQ+Lc8uXC1ZaQ56rvL5/fZivedIgRn1ffaZh/bSS3ft+ece2DkXQ+oAWSwhzA0uvbY++32/7rO2baGQ+p0Fs7vp0WLRFXIghL2BKOmsbYUpdDPhfI7r5kkEq39r75pu/OTQBzi2G/r/iAAvXXpkz7gQXvbtmTNLQQSpFRx0WHLrtkeB335g9uFScqEm0V1yJ4Sdawc0Pzfez42VS14obtolF0IWWehfatV9andhvd9a2j8NOei5/Z6vhO8TRXBubiOI32uv3bKXX75rJ06uhNHg2pkgtfRUI0s/sXrwjq/A9Yp/xKU6ryarzmg5/u6TOyEstrVWUvTc+B7lljPit1+ydTvvQsjjvWxT+SLu2fJxZG8TBT79tAvgZ2+G+cCzM5upVwwYfDF+RrQSzCF+vGn2f14z+zufJIuvat3B3pAvIWy7dsY9lbAh5bww6Q+csp2wykySFqebqegscc9yEJLR4BPza3bp4pOQCp86uewiuBVmiwwLfFPSX/oDmU/8f91Iltta9MdIk0X3ybgQMtmtdMGm6FCdcCwXw0Kx/EZH3JWft02b9a06XbtD7YmFmkBSYVaEcRH0KPDUqZUwSJKsCpMw6Cckvh8i+GMXwX92y+x/u2L2rQdm97XmYE/JeLuddkeb963/TDyOBtKhjqAYXLI57pHgm2FhhRiFVDa/znxivkmXyCS3CnbkyEYQwWefexAWR6iEV1Ueh4Eh5RDcfPuJ2d+7ava3flKwT5aTC7iL3pL5iNCTp9Lt7jSMqcKunXAhfMojwok9IUxDE8bdJYedoOD7e3x8206fZpn8h/bUU09COUz9wZBB3ucF9xqzFRe9371r9oceBS5uFUM/oTyl92RcCLsfFdA/eMx2ghgO4+IKwwQrwTAqfOny4zAwwuUzj3pqXL8kZrCPBd+ORVbf8miQ5bU+XTFdnrOPqEurTcbDajPFMJ2OHslaohh3V5CzRbKv4sycOEXuyJFNu3B+0T772VvhynHMFR5GEr0r2n3/+r9z2+xjF0EiQ9E/ciKEXRIh9+iwSglWekh0AroYkl7BZIrcpl28+MheffWWfeYz92xifKepusBBhd/FdUcomv63nhI/oeJK9JUcRYRJdBE2ncI9eqa4a7NFTufD2zAHD6SiEFJelsl/7rmHybWDTy2H1aLTo8LDCkXTd10I318qhGsWi/6SEyFMN5zOxm6MGDO/WHQWIr4jcxt29mxy7eBTLoIsnpAFEeQXPNw0u7qalMlo5kj/ybwQVste7copLcKfx7fwLYuwJrNJRPskOxcRZGT44lOP7ZKnxJTJjA5xKpwm/Ap3yqsrZu8tMkCSjd817GReCGvmcrYbEPL3bhTmsMrMZdsoCWG7byyA/lZWi3755dv21MUnNjfHVLmq09cQ7+rgPv5jlj2JWCglEpLC/pNxIZx0L5vrgPpV4Z476WfyF2zdznlEWF6FWhwWUl4E8Pz5BXv2mQdhdPioR4KMFjcjFZubo7a0NGUPH83a6uqEbW8PtmvfWU9KZsRgkHEhnHY76tbBn1lqk9QPIoREhUMdogwAiB3L51MXyLqBGPWCcb5wIxnk8a2dEVtZmbCHD2ft5u1jdu36cbt7b87W1ibC8wdLaG/h+2zsFuzaqtmV5eQx0X8yLoSlZtBJnfL34u3YcdQOqoj68CR1grvhKnKf+/wNe/WVO3bmzKKNjSdFdXHPlg8ft9xKT+x41Le4MGnvvXfO3vrRRXvv3XP26Scn7f33ztuDh0f8dYO3GBozR26tFe3OWlJQze8ZtO+YRzIuhN1h1NM40uF5jwaJDMXhQALoA2RE+LiL4eTUto2OUkBdekENLp2+u3c8onryZNo+KYne3btHQ1S4tTVq226ra+MeEY7bpt8eJIouzFuewvN9l5YnSx0qWrJtEJAQHgIWYZ1yN55zIUwSMHEY6BekTvDkSRdB5gsfUBqDCG5ujdjjxzN24+a8Xb9+wu7ccRFcnbSdHUQviRh3PF2mn3BlZTL83aCw5RHs8tK0LdyZt6nlOTvl3iMGAwlhq/hZnXSYdQcxpcaHhzIZrivCdYUZzwpjWtFSsIe3Xdw2PJpaWJi269eOezR4KqS/O7uVUV88GsseIS4scPXCwWDXf9yKi/O9u3O28XDeLq7P20vhmttiEJAQtkyyyMLTthmW3aKMJj4umiFp+kSD2NTkVjCCwT1R8NvszWhEeAyGfPjhWXvnnfN2zSPBjY3SOpNOrZgUQwq6scHKQ/2VmiDuzqoL853bR+2KC/jm5phdsml7xXOKWT+VjkoO+46EsFXcZ5lJ8qKtG708ZReWMzcH0pYQxNCjQiw8WlK+0A+4U7B1F7t79+bs/ffP2Ucfn7Fbt+Y9LZ4NIri7W97f5XeMFEJqTPRIFJl+ba9B4Pl+i0tT9uTJjK2vTYTvc9QF8JxNuU36PzXDfpPhI4Dzd6cBMK3uOduw8TpNUDQPgweUuSwvT4XobR1bHw99ew897SWCunr1pH300Wm7dfOYLS5O29Z2cwMgiOWyi8/K8mRIq/sJv5M0HTGMjHvTm3cxvOyR4dTeukU6mfYLjsA3kptZg592wu2U+xed0p1xMs7wr7gI/rQtuyvLcQ9LmC3iArG7OxJGe4kCV1cnbXllyh48mLOf/ORMSIEfPZoNqXE8fs3tcU5QhbCU//TMZriMJ0v495KYEnODMp9Pr53w33Uk/N741JZ/z3XPKq7aqi1pvnpfyXBESP8Q1lwE0SxJDIgrp5ukIsNWYY8hhIth8OOEvfvuBbfzIQ3+5NOTHiV6JNfW7JCiR4WUqszZlm+TR3pHwX8b/0jNKfJe8mh21wU9PVmQ50mLdULtPxlPjfl5nf2JlMuM+Vm8jESwHaj1W/ZUmP6zxKaDCJICEyUebv8mwkK5CqU2C4tJ6t1rGCle81T/zp1joc8S4U/DPQ2UDAYZFsISnfQzb5NcqS5esjON3PmwIHTRDkv6b8tHgggMAbp/f87FkHXEewfDP1tbI6GPEjFmpDiBODDeShqgfKf/ZF8IO+n9hYKdtB076kKYjHNiuDEJj9z5cCT7L7FqGj1eTfo18YDHvy3Y9RtJ4fWOCxNRZjxyTb31IeGtV5Yn7OGD2bAgRL1RbhL2afep7DfCwSd/x6AqPWkNLuS+FUaNa98lurfoH3sSVwE1hQxUXL12MqThyeCL081D5u/N6DeDPQyQ1IPR4kvFWT+5TqZGjkU/yLAQIlVVctWWCCY7ixpCCqoT2ns/0RvQO5boun79uF27cdzFaaa7fYaIYKmOkc+t1zcIlNCcsAl71mbstKbb9ZUcCGHJ7aIzUv9yCNhR1A2y7JYnWX6PdLibIYVondTxroIR5Pv3j9i775y3Tz89aU8ez4TIkAENjmLLR7LqY6J7hWJwjwDv3TtiDx7OhqLw8qBP8inpz+LPXrUj9nRYMk70iwwLIWd8P8sW2Lq7hTlcaRdsjRF3XxZaOOURYSKEvGv9RicGF6KzO3eP2Ucfn7ZPr54Igyn037V8JN2VED88Ku1V1EQ+fDhj166fDIMk5Wf5hORTqr1w3k+xx9wm3MvkUf0hw0LIT4vWPjjomHswYqgVZ4aN1PFy9dpYHwt9d9eunQizVm54ukzpThjUiKHdAey9Y+nlRRfTpeUpu337WKiDJC1GFEvPlrYJ1Z8wa6Nhyt2Mimn6BkcqozNLmM500u14recdAnYUc4u/bCt2bu9iTXLb4YNjVgjF2murk7YYagzH/f5oSGkZ2CBCJG1mbUMer7Gd0VDnyO0dt63NsbAUGMXbzIdmvcHtLdYlSvtHY18hHr1vG3bD1mzJsw1d+KH3cHQyGt7Muz3v9ux+Ptg09A8eLe7af+4u+7o7bIZ3XOaIx4ljhuhU9+2y+MPomEf6E9t28sSKHZ1bs8lw6dD6jpN+P0A0GZUmFa5XOF0s7IaZJvs54o9s0X7PHtj3bcE2JYU9hyOTbSEsuBCmwSEP0VeYCOGOC+GDIIQJvE/i3OVbYvhgSTA/fiMuhuM7YY4yayU2C4MhpNWkwul50Qnxfep5R9lrHrj8IYa/aTdtWfOOew5HofkjPlS0K4SVu0ZCmHWqfaLVoxn/vvrvmvOMLY8Cr7pf/bpddylc83+KCntJhgdLGtCMfyOW1e2iLuU3a+ZtxSDDEWznKDb6++bek5rC4/7/czZjc6HiQfSS/AlhMwrXZqmNGGbaFcTDM+afS2G1Zpn0nuwLYVt6JjEUvYMluZ632SCGWrW6t2R4b1P0jHWor0WaKLoM6fFFmw5ieN7jQiLE/sSm+SPDQkit34ZnOb4tFpvPditKH0q3+VvfUBmm87ToFpRTU1j9BTtmb/ot+gpVYt0b8pEat+JL9dTS/36usGNfsjXjou5CdJPznhh/xY7bn7Gz4drHmnjXffIR4Li2IW8VwV6LsKznc7ZZd1FWITrJlDdLxPANjwpftiN20pNm0V1yIYRB/9oQQeYWs/TWU55qM9dYiO6RZCQMlnCpzzc9B+EayOOKCrtKLoQwRIKhNvBwzsQahM/Zul10IZyWEIoukgyPJCueM3jyRT8Fv+JRIavTSAq7R376/g9bG8if+YYdlZ+dJfpF9NAoegyWcO3jl1wMuS0x7A5q200wXizaVJHrlMgNRe85a1P2vM2EdFkDJ90hw0LIubVk8TR7SGYsWZVaLij6AVPvqC88bmOhtlB0ngwLIXWE2E6SZ8Q+wlb7Cf3ljBjPqW9Q9AkKaE76/5/10zF1htCiF4sDyHhEmJpZEvsIW+kn5KVu7CTN/hS9Jood2wn//4SLYBwyacGLRRPkIzU+JDrrikGBvkFGkdVH2B0yLITtE7Jo+Z3oE9WncF0KvntozwoxBDDb5Gn/f1qdNF1BQijEEEDpDCvSIIii82ivCjEEjHlT5frHR/wWo8iis2iPCjEk0GdIPeFZjw9FZ5EQCjFEsCwXkaHoLBkWQn4a1v6wrwaOxaDAMv4nQiGNvLKTZFgIqcD3M2ehvVG2WH8ttxP9hiUXEEEiQi3A0FmyHxEWseSRwxBm5bFN7gohMkiGhRA4Z7Zx3pT6CZELMi6E4EJ4SC1sQ0KFEENEDiLCiBJcIUR9Mi6EafFDFN1aWIYrvnTJd9NDTW0SIrNkPzVuXvcasuZvghgqnhQim+Sgj7CKA4QxlMtUKd6a76YljwhZo1piKPpFB87pogHZF8Ia5dpfyrguCQ63t4ar20Mbs2s2YSv+jC7vLgaBtBdLINtHqXE1rn6hdrBk/P1ugdR41D6yaRdD9RWK/tBI/NKPi8ORYSHkpyFanfmJy4VRe8uFcFFCKETmyLAQlqbYIVwtjBQ3Ytl31Q9cCJ9ICEXfSC4o2743i2oyHhFi7jZ7IyBNJBEdEE0hugNzjZPVZ3RZz86SUSHESWJazO3oNE04TxDNEmnd3FdDmxRZIdqi6BJYsDMuhp+xWb+d4Timx2R4T7J45YT7TgsiWEV6fQ9uVb9D+n7r7y7E4WDJ/s/bUTviJ3tWoRHtk1khLNic/z/lN0qR2t4wcPMUU9Fh+PPS7Uj6flERoeg6+G/BzvlJ/k075pHhpJ/qFRV2gszuxb1uZfSpY/1+vE89wSt9lhBdJHoemQpp8VEbcymU33WC7J5O9vwj5Sjp/r+2aCSGQvQGvI0r2yk17gzZjqvTPtIRESQBZpodpmRY9JYKd/Z/XNpTQtgZst/BgACmRfCQaTLvsOtOt+XGNDt2HO/E4xJE0WsYPX7KpsPlPUX7ZF8IqzlkZIgIbvjueuCOt+Dn4aQPMhFDnZNFr0EIL3hMOBcqCuWF7ZI/ITwkyOeGO9s1d8G7bkL0g9ghwwXfz9qEzSo57ggSwibB/UiJP7JJu+oOuO3up5RY9JpY24r8HS8JYZIcyxvbQULYCu6DdzwafNum7XtuRIhC9AM8jxKal+yIvewm2kNC2CL0E97wM/GPXAjpKyQyFKIf4HlEhBowaR8J4SFgBZorNmX33QFjVCg5FL2nGGaWUE8o2kN78BBsuuw9KYyGVau5lkm5C1uI3oHPMc3uHFNJRVtICFshpXYrvuv+yBOTW3sjyJJC0VsYODnm/seyXKI9JISHhMJqIsIrfkZWOY3oF6TG9BPOuI2og+bQSAhbAT8LVrBisWDrhRH70NOSD9xigbUQvSDJP5LJnky1I0WmyFocjgwLIa6SSlfDOlqdchR/39IMFcppiAzpN9wNjwjRfWi4pMZI4ayN2bMeE055VAiSw9bJrhCmNHDvdkc9JBHWVd+Fi270GTINT4hegEtHt552AbzgEeFEyf/Sri+aI8MRYSJUiVf4NkRwWGfFasvT5NXCaBBCXfNY9INp9z0Wa9UirYcns3uus3JXZk9P+c8/hJQYEeQynztd+1QhGkMd4enQR9igOcstDySzQlgsTLgDjCVOULHiTPp264Ruxj3HSuoHH9mYfc9mbbnURyNEN6j24uiGRIJc3Q4xpL+whvZcPhdkVAhxkWk3LuDUfegjZOR4reLUm2fvU8vrNnha3MuUzTBy/IodsfM98vmskWEhpNq+N/V9674b7/iZeM23lRKQ3EvLY9aJc2zYbtmuPbFNe+y2bNv+TzNw2mE/PyIOfM2F8FLoMcyTx3WGDAohPwm36J0z0Lh3/OOYd0yhdXwsIV+NPy4Theg98f+/4///O5fC910Kl0piGFFz7Rwj/o+FWrnmsaSwdTIohKzYOx+2vYTSmVv+mSzIAOVVg/PlksmvLdhVj4//ke+Rb9pD+zdu/4/ds39stz1yXg+vAEWHnYU1Ciml0Wo0rZMxIaQZ0kdy2m2CB3oGxdRMtyNFznth9brtuASu2w9sIQjiNbcPPCL8rp8m3vW48L7HzqLz4P1c4vOU+36MzEVzDLkQpg82tzGmuyGEvZ3/S0T4UWHaBWBiLz3OI0R5T3wPPLBNl8Jd/5fEfaTEj/3x77o4kiZvh9OFYsJOgviddP+7GJJj0QpDvr/S/U3cJi2lbIaosLc/jU/fKBbCwAlCmOcmvuAyh+ghdtX74WNbsfdcCO96VLhdekx0DuYcM91OvYStkZkTR1oSrdifn7Xun82UO1axzi/FkPrec6t3MljztPmhR4t3/PmdXJ8uusMRDwYooXnGo0JWpBHNkecW21Fo0owaI4bMNslrE+d3E+0hdPXgeUaP6UNMjyCL9mFvMruE9QmflhC2RDaF8JDXLm6XnULBG3dyAfg8wl6n5w8RRAwbQep8Iwih1uvpJDEZZvR43sY0ZNICGRPCUh9hsfd9hCJJe99ymSP13Y9Fl8BPbTUY0aHoLFz0/St2ws4YC3NJCpshY2rBz8EQRDlAr6HPj0GSjQMiPWacMKr8bX81YnjQ60VrEAmetclwAXhEURxMBiPC3s4qEYdj1WXzj1wIf+TxIQMroj0qPb4QWgFiSDmNOJiMCSHzi2fdDySE/aLZPU9/IpEhRdZMwRPtke4V5xgw5e6stweKq8XBZEgIOfwnfHMmuSt6Do1x0/+PiW6tKNY+8sjl8Ce2Yt+3hVBmLToHpTQaOW6OjAghDWzSN3O+9YhQ9AUiPOYSk/Y2C/2DlNL8e48MEUXVFnYO+ge5wp04mIwIIT/jmIckpQtdqy31BabUfejRHVPsoPYwVD4S7y3469+2RbudEtHa2FHsR739dcyFEDHUvjyYjAghZz3mF89IBPsAC40xmY5o7jC7n78jLX7bluymiyFo5cLWqLe3kpVoRj1XalxEI5FMyFBqzCILMQ1QI+ol7H1qCElt11wSW01vefWW/88KNVc9JiQq1BFsH+YbP+Vy+FN2vGFfofZzQkaEUPSbOG0OQaxdauFg+Bv6Fz9xGSQqVGVhazSK7M7blH3F5j1NHt8nLhQZigjdShvRSxC9QogGKY5mLcLDihg9ix/5e3wv9DIeRk7zS6N9RSTIpT5ZlYZUWdQnI0JI01tyi1O71IR6R3LmYfSXqLC9Pc/y/pt23ePK+77VjJN24WiUj4hihMZkSAhX/Ji7EEoD+wIpMRdpajeOo4/xnr8P6xauqK6wTSR9zZIdISys+paFsHb8thygtxSDaD3qgBAyTJKU0yyprrAjFEIjp4hGraIx2RHC4qJvH3mz8RRZbafHsAYjJTCH7x9Ms+LvwxzkGx4fJlGhDuhhoVdw0ps5NYVc+1hiWJ+MCCHQBOkndEHU0e45RBw0uE7seqJAxJALP7G2oWTw8BAHMlo84cdGo8aNyZAQAsW4K8lN0VNY+Y4SjU7FHKTYRISU5CCMEsPDgwCyajUnKu3H+mRMCCnAYORYh7vXMKeVJZ864VBRSm97NEhEmPQ86pgeljE/Kpds2o6GSQeiHhkTwohSgG5ST5IonWFdwU5cpiC+P7Egq1kv+bYTfY95hYVaX7IjWptwHzIohC6C1S21KGHsJPX2JjV/iFYnIzfek3rCK54iU2AtDgfdFUTsSWG1xLAeGRNCGiExCY0m3SBpuhLDTlG9Jyl3wRCuzslgclF4UmNWprnrgsjEu06+f9446akxM0xELRkTQkot6CNk6fd0k+G2mlCnYE/GUwsXLv2xC9UVo46z8zzwY8mUO1ayZi5yIoVFndZahP3FoIkW5apPxoSQaNBFsMDocSqV6tPlPbNMPLVg112gSGG7Ae+/6ic4xBCx5XYiv6IVtL/2J2NCiPitud1z607DFGVivR9XpOvmZTlJkVmR5l3/FBZlEIeDguqZrDX5DpHBvbLmAeB131JP6MIYwpaYyIlOEPckF2inbxAxZD3BbsE7U0KDEP7APzFZ4Sb5PB3V5jnqiTH1hKKW7AlhgThl2W88cPNt0MCghm6iE8Q9mfTURSnqwv6tUrkFl15mm7zvxzUu6a+j2izFIIInNVhSl+wJYZGm4Y2kuODGijR+X62lSxRD2tq1cueqN+UUR4kOV70jCtVhbYWCp8Vj4fKejBx3pvQ9O2R0b9BEmHdMetyJEl9RD/Ysy2+RtvZKlliE4WOPBxFEUnPRPIgfUSGzTJhuJ8pkeG/Qqe5CWGAUuTeNlAnuMVmsyuoyCeLHIAlrCLa7JGuzkBKzEjZlNRTT5GE/dwrKZ454VCghrCXDe4NRzHUPDtfcut9IaZBHijt21BvqTGigvRGGftBP8UF8SYvf8pjwmktwdvdyd0AAT3tUyPIYokyG9wZNhHpCBk5601zG/HPG3UbD52U3Vumn+PDZpMQfuBxSV8hlQPv5fYYNGjwpsmSwkozvD4SQ9Qnpzeptc1Hj7B7sWy4GT4rMFDxNvBPtklkhTOIxiqufeMvp3dJcfIqaZW+46yL4YRg+0R4X7ZFZIUyaBpEggyZ33BDF7jLhnzrtxjYPsOgW8387s/hW61DMzYyTdIG12B/6CCmhUR9hJRnfGzQOosF7fhNB7F65BREofYSJZbmHsAyDFhQ3s+0HfC4XjCI5ViFNc9A/eNr/Z1kuLcBQJgenBUaPPT32ZmPF7s2HBcqKk3/JvTJZi1YopN4NV5l7x4WQizb1A6b1IYZs+admfTBEgtQSIoaU0ggw+/8Br0PRLyrD5UMAAAAASUVORK5CYII=;strokeWidth=2;" vertex="1" parent="1">
                    <mxGeometry x="371.0600000000006" y="225.00000000000023" width="84.74" height="120" as="geometry"/>
                </mxCell>
                <mxCell id="118" value="&lt;font style=&quot;font-size: 30px;&quot;&gt;Batch Normalization&lt;/font&gt;" style="rounded=0;whiteSpace=wrap;html=1;strokeWidth=2;" vertex="1" parent="1">
                    <mxGeometry x="1790" y="390" width="280" height="70" as="geometry"/>
                </mxCell>
                <mxCell id="120" value="" style="endArrow=none;dashed=1;html=1;dashPattern=8 8;strokeWidth=2;rounded=0;entryX=0.5;entryY=1;entryDx=0;entryDy=0;" edge="1" parent="1" target="139">
                    <mxGeometry width="50" height="50" relative="1" as="geometry">
                        <mxPoint x="1930" y="650" as="sourcePoint"/>
                        <mxPoint x="1920" y="1180" as="targetPoint"/>
                    </mxGeometry>
                </mxCell>
                <mxCell id="121" value="&lt;font style=&quot;font-size: 30px;&quot;&gt;&amp;nbsp;Doubled until it reach 512 filter&lt;/font&gt;" style="text;html=1;strokeColor=none;fillColor=none;align=center;verticalAlign=middle;whiteSpace=wrap;rounded=0;strokeWidth=2;" vertex="1" parent="1">
                    <mxGeometry x="2150" y="510" width="190" height="30" as="geometry"/>
                </mxCell>
                <mxCell id="127" value="" style="rounded=0;whiteSpace=wrap;html=1;strokeWidth=2;fillColor=none;" vertex="1" parent="1">
                    <mxGeometry x="1870" y="80" width="120" height="60" as="geometry"/>
                </mxCell>
                <mxCell id="129" value="&lt;font style=&quot;font-size: 30px;&quot;&gt;Pooling Layer (Down 2)&lt;/font&gt;" style="rounded=0;whiteSpace=wrap;html=1;strokeWidth=2;" vertex="1" parent="1">
                    <mxGeometry x="1790" y="190" width="280" height="70" as="geometry"/>
                </mxCell>
                <mxCell id="135" value="&lt;font style=&quot;&quot;&gt;&lt;i style=&quot;&quot;&gt;&lt;span style=&quot;font-size: 35px;&quot;&gt;Y&lt;sub&gt;i&lt;/sub&gt;&lt;/span&gt;&lt;/i&gt;&lt;/font&gt;" style="text;html=1;strokeColor=none;fillColor=none;align=center;verticalAlign=middle;whiteSpace=wrap;rounded=0;fontSize=16;strokeWidth=2;" vertex="1" parent="1">
                    <mxGeometry x="1900" y="1050" width="60" height="30" as="geometry"/>
                </mxCell>
                <mxCell id="136" value="&lt;i&gt;SÌ‚&lt;sub&gt;i-1&lt;/sub&gt;&lt;/i&gt;" style="text;html=1;strokeColor=none;fillColor=none;align=center;verticalAlign=middle;whiteSpace=wrap;rounded=0;fontSize=35;strokeWidth=2;" vertex="1" parent="1">
                    <mxGeometry x="1900" y="95" width="60" height="30" as="geometry"/>
                </mxCell>
                <mxCell id="137" value="" style="endArrow=none;html=1;exitX=1;exitY=1;exitDx=0;exitDy=0;strokeWidth=2;entryX=0;entryY=1;entryDx=0;entryDy=0;" edge="1" parent="1" source="22" target="156">
                    <mxGeometry width="50" height="50" relative="1" as="geometry">
                        <mxPoint x="1320" y="240" as="sourcePoint"/>
                        <mxPoint x="1400" y="1110" as="targetPoint"/>
                    </mxGeometry>
                </mxCell>
                <mxCell id="138" value="" style="endArrow=none;html=1;exitX=1;exitY=0;exitDx=0;exitDy=0;entryX=0;entryY=0;entryDx=0;entryDy=0;strokeWidth=2;" edge="1" parent="1" source="22" target="156">
                    <mxGeometry width="50" height="50" relative="1" as="geometry">
                        <mxPoint x="1210" y="240" as="sourcePoint"/>
                        <mxPoint x="1360" y="320" as="targetPoint"/>
                    </mxGeometry>
                </mxCell>
                <mxCell id="139" value="&lt;font style=&quot;font-size: 30px;&quot;&gt;Leaky Relu activation&lt;/font&gt;" style="rounded=0;whiteSpace=wrap;html=1;strokeWidth=2;" vertex="1" parent="1">
                    <mxGeometry x="1790" y="490" width="280" height="70" as="geometry"/>
                </mxCell>
                <mxCell id="140" value="&lt;font style=&quot;font-size: 30px;&quot;&gt;Convolution (64 filter)&lt;/font&gt;" style="rounded=0;whiteSpace=wrap;html=1;strokeWidth=2;" vertex="1" parent="1">
                    <mxGeometry x="1790" y="290" width="280" height="70" as="geometry"/>
                </mxCell>
                <mxCell id="142" value="" style="endArrow=classic;html=1;exitX=0.5;exitY=1;exitDx=0;exitDy=0;entryX=0.5;entryY=0;entryDx=0;entryDy=0;strokeWidth=2;dashed=1;dashPattern=1 2;" edge="1" parent="1" source="129" target="140">
                    <mxGeometry width="50" height="50" relative="1" as="geometry">
                        <mxPoint x="2190" y="280" as="sourcePoint"/>
                        <mxPoint x="2240" y="230" as="targetPoint"/>
                    </mxGeometry>
                </mxCell>
                <mxCell id="143" value="" style="endArrow=classic;html=1;exitX=0.5;exitY=1;exitDx=0;exitDy=0;entryX=0.5;entryY=0;entryDx=0;entryDy=0;strokeWidth=2;dashed=1;dashPattern=1 2;" edge="1" parent="1" source="140" target="118">
                    <mxGeometry width="50" height="50" relative="1" as="geometry">
                        <mxPoint x="2220" y="340" as="sourcePoint"/>
                        <mxPoint x="2270" y="290" as="targetPoint"/>
                    </mxGeometry>
                </mxCell>
                <mxCell id="144" value="" style="endArrow=classic;html=1;exitX=0.5;exitY=1;exitDx=0;exitDy=0;entryX=0.5;entryY=0;entryDx=0;entryDy=0;dashed=1;dashPattern=1 1;strokeWidth=2;" edge="1" parent="1" source="118" target="139">
                    <mxGeometry width="50" height="50" relative="1" as="geometry">
                        <mxPoint x="2200" y="430" as="sourcePoint"/>
                        <mxPoint x="2250" y="380" as="targetPoint"/>
                    </mxGeometry>
                </mxCell>
                <mxCell id="145" value="&lt;font style=&quot;font-size: 30px;&quot;&gt;Batch Normalization&lt;/font&gt;" style="rounded=0;whiteSpace=wrap;html=1;strokeWidth=2;" vertex="1" parent="1">
                    <mxGeometry x="1790" y="770" width="280" height="70" as="geometry"/>
                </mxCell>
                <mxCell id="146" value="&lt;font style=&quot;font-size: 30px;&quot;&gt;Leaky Relu activation&lt;/font&gt;" style="rounded=0;whiteSpace=wrap;html=1;strokeWidth=2;" vertex="1" parent="1">
                    <mxGeometry x="1790" y="870" width="280" height="70" as="geometry"/>
                </mxCell>
                <mxCell id="147" value="&lt;font style=&quot;font-size: 30px;&quot;&gt;Convolution (512 filter)&lt;/font&gt;" style="rounded=0;whiteSpace=wrap;html=1;strokeWidth=2;" vertex="1" parent="1">
                    <mxGeometry x="1790" y="670" width="280" height="70" as="geometry"/>
                </mxCell>
                <mxCell id="148" value="" style="endArrow=classic;html=1;exitX=0.5;exitY=1;exitDx=0;exitDy=0;entryX=0.5;entryY=0;entryDx=0;entryDy=0;dashed=1;dashPattern=1 1;strokeWidth=2;" edge="1" source="147" target="145" parent="1">
                    <mxGeometry width="50" height="50" relative="1" as="geometry">
                        <mxPoint x="2220" y="720" as="sourcePoint"/>
                        <mxPoint x="2270" y="670" as="targetPoint"/>
                    </mxGeometry>
                </mxCell>
                <mxCell id="149" value="" style="endArrow=classic;html=1;exitX=0.5;exitY=1;exitDx=0;exitDy=0;entryX=0.5;entryY=0;entryDx=0;entryDy=0;dashed=1;dashPattern=1 1;strokeWidth=2;" edge="1" source="145" target="146" parent="1">
                    <mxGeometry width="50" height="50" relative="1" as="geometry">
                        <mxPoint x="2200" y="810" as="sourcePoint"/>
                        <mxPoint x="2250" y="760" as="targetPoint"/>
                    </mxGeometry>
                </mxCell>
                <mxCell id="150" value="" style="endArrow=classic;html=1;dashed=1;dashPattern=1 1;strokeWidth=2;exitX=0.5;exitY=1;exitDx=0;exitDy=0;" edge="1" parent="1" source="146">
                    <mxGeometry width="50" height="50" relative="1" as="geometry">
                        <mxPoint x="2210" y="900" as="sourcePoint"/>
                        <mxPoint x="1930" y="1030" as="targetPoint"/>
                    </mxGeometry>
                </mxCell>
                <mxCell id="151" value="" style="rounded=0;whiteSpace=wrap;html=1;strokeWidth=2;fillColor=none;" vertex="1" parent="1">
                    <mxGeometry x="1870" y="1028.5" width="120" height="60" as="geometry"/>
                </mxCell>
                <mxCell id="152" value="" style="endArrow=none;html=1;strokeWidth=2;" edge="1" parent="1">
                    <mxGeometry width="50" height="50" relative="1" as="geometry">
                        <mxPoint x="2150" y="700" as="sourcePoint"/>
                        <mxPoint x="2150" y="320" as="targetPoint"/>
                    </mxGeometry>
                </mxCell>
                <mxCell id="153" value="" style="endArrow=none;html=1;strokeWidth=2;" edge="1" parent="1">
                    <mxGeometry width="50" height="50" relative="1" as="geometry">
                        <mxPoint x="2080" y="320" as="sourcePoint"/>
                        <mxPoint x="2150" y="320" as="targetPoint"/>
                    </mxGeometry>
                </mxCell>
                <mxCell id="154" value="" style="endArrow=none;html=1;strokeWidth=2;" edge="1" parent="1">
                    <mxGeometry width="50" height="50" relative="1" as="geometry">
                        <mxPoint x="2080" y="700" as="sourcePoint"/>
                        <mxPoint x="2150" y="700" as="targetPoint"/>
                    </mxGeometry>
                </mxCell>
                <mxCell id="155" value="" style="endArrow=classic;html=1;strokeWidth=2;fontSize=30;exitX=0.5;exitY=1;exitDx=0;exitDy=0;entryX=0.5;entryY=0;entryDx=0;entryDy=0;dashed=1;dashPattern=1 1;" edge="1" parent="1" source="127" target="129">
                    <mxGeometry width="50" height="50" relative="1" as="geometry">
                        <mxPoint x="1950" y="160" as="sourcePoint"/>
                        <mxPoint x="2000" y="110" as="targetPoint"/>
                        <Array as="points"/>
                    </mxGeometry>
                </mxCell>
                <mxCell id="158" value="Y&lt;font style=&quot;font-size: 30px;&quot;&gt;&lt;sub&gt;3&lt;/sub&gt;&lt;/font&gt;" style="text;html=1;strokeColor=none;fillColor=none;align=center;verticalAlign=middle;whiteSpace=wrap;rounded=0;fontSize=30;" vertex="1" parent="1">
                    <mxGeometry x="958.16" y="690" width="60" height="30" as="geometry"/>
                </mxCell>
                <mxCell id="164" value="&lt;h2 style=&quot;margin: 0px; color: rgb(69, 90, 100); font-family: Lato, &amp;quot;Avenir Next&amp;quot;, Avenir, &amp;quot;Trebuchet MS&amp;quot;, &amp;quot;Segoe UI&amp;quot;, sans-serif; letter-spacing: 1.25px; text-align: start;&quot; data-line=&quot;260&quot; class=&quot;code-line&quot; id=&quot;discriminator-architecture&quot;&gt;Multiscale Discriminator&amp;nbsp;&lt;/h2&gt;" style="text;html=1;strokeColor=none;fillColor=none;align=center;verticalAlign=middle;whiteSpace=wrap;rounded=0;strokeWidth=2;fontSize=30;" vertex="1" parent="1">
                    <mxGeometry x="320.23" y="1100" width="579" height="30" as="geometry"/>
                </mxCell>
                <mxCell id="165" value="&lt;h2 style=&quot;margin: 0px; color: rgb(69, 90, 100); font-family: Lato, &amp;quot;Avenir Next&amp;quot;, Avenir, &amp;quot;Trebuchet MS&amp;quot;, &amp;quot;Segoe UI&amp;quot;, sans-serif; letter-spacing: 1.25px; text-align: start;&quot; data-line=&quot;260&quot; class=&quot;code-line&quot; id=&quot;discriminator-architecture&quot;&gt;N-Layer Subdiscriminator&lt;/h2&gt;" style="text;html=1;strokeColor=none;fillColor=none;align=center;verticalAlign=middle;whiteSpace=wrap;rounded=0;strokeWidth=2;fontSize=30;" vertex="1" parent="1">
                    <mxGeometry x="1670" y="1100" width="579" height="30" as="geometry"/>
                </mxCell>
            </root>
        </mxGraphModel>
    </diagram>
</mxfile>